HIERARCHY
ROOT Hips
{
  OFFSET 0 0 0
  CHANNELS 6 Xposition Yposition Zposition Zrotation Yrotation Xrotation
  JOINT LeftThigh
  {
    OFFSET 8.409438 0 -5.917753
    CHANNELS 3 Zrotation Yrotation Xrotation
    JOINT LeftLeg
    {
      OFFSET 0 0 -42.358652
      CHANNELS 3 Zrotation Yrotation Xrotation
      JOINT LeftFoot
      {
        OFFSET 0 0 -39.357303
        CHANNELS 3 Zrotation Yrotation Xrotation
      }
    }
  }
  JOINT RightThigh
  {
    OFFSET -8.409438 0 -5.917753
    CHANNELS 3 Zrotation Yrotation Xrotation
    JOINT RightLeg
    {
      OFFSET 0 0 -42.358652
      CHANNELS 3 Zrotation Yrotation Xrotation
      JOINT RightFoot
      {
        OFFSET 0 0 -39.357303
        CHANNELS 3 Zrotation Yrotation Xrotation
      }
    }
  }
  JOINT SpineLow
  {
    OFFSET 0 0 4.719101
    CHANNELS 3 Zrotation Yrotation Xrotation
    JOINT SpineMid
    {
      OFFSET 0 0 12.899191
      CHANNELS 3 Zrotation Yrotation Xrotation
      JOINT Chest
      {
        OFFSET 0 0 12.899191
        CHANNELS 3 Zrotation Yrotation Xrotation
        JOINT LeftShoulder
        {
          OFFSET 7.550562 1.41573 9.438202
          CHANNELS 3 Zrotation Yrotation Xrotation
          JOINT LeftArm
          {
            OFFSET 9.155056 0 4.247191
            CHANNELS 3 Zrotation Yrotation Xrotation
            JOINT LeftForearm
            {
              OFFSET 0 0 25.771955
              CHANNELS 3 Zrotation Yrotation Xrotation
              JOINT LeftHand
              {
                OFFSET 0 0 25.197169
                CHANNELS 3 Zrotation Yrotation Xrotation
              }
            }
          }
        }
        JOINT RightShoulder
        {
          OFFSET -7.550562 1.41573 9.438202
          CHANNELS 3 Zrotation Yrotation Xrotation
          JOINT RightArm
          {
            OFFSET -9.155056 0 4.247191
            CHANNELS 3 Zrotation Yrotation Xrotation
            JOINT RightForearm
            {
              OFFSET 0 0 -25.771955
              CHANNELS 3 Zrotation Yrotation Xrotation
              JOINT RightHand
              {
                OFFSET 0 0 -25.197169
                CHANNELS 3 Zrotation Yrotation Xrotation
              }
            }
          }
        }
        JOINT Neck
        {
          OFFSET 0 0 15.101124
          CHANNELS 3 Zrotation Yrotation Xrotation
          JOINT Head
          {
            OFFSET 0 0 11.325843
            CHANNELS 3 Zrotation Yrotation Xrotation
            End Site
            {
              OFFSET 0 0 14.157303
            }
          }
        }
      }
    }
  }
}
MOTION
Frames: 13
Frame Time: 0.0
0.0  89.887642  0.0  -0.587472  -3.266463  -91.827004  13.021914  -14.666571  -4.920616  6.925203  0.518948  17.794245  -0.196454  0.246376  -1.275234  -7.242419  7.927293  -8.930667  -16.24795  9.997326  20.52701  1.728919  2.647289  0.135669  -1.934916  -0.264625  0.136572  -5.290564  -0.711869  0.394208  -5.290564  -0.711869  0.394208  -10.166287  11.18096  6.368882  148.759158  31.024989  -156.216899  7.671571  -2.875776  59.725234  66.304093  12.182308  -20.847805  -3.825171  -10.921357  15.912542  85.201216  29.661263  37.711509  2.663178  24.090115  -45.334952  98.588942  -9.053362  -12.935142  -12.640184  -9.084332  -28.39781  -9.911144  -6.245583  -21.453042  
0.0  89.887642  0.0  -0.533018  -3.945387  -90.871234  14.389792  -14.735512  -6.741275  7.362227  0.699242  19.227772  -0.34789  0.086509  -1.43686  -6.374483  7.577877  -11.157044  -16.464113  10.559376  22.366624  1.75112  2.930438  0.135422  -1.885214  -0.154332  0.064027  -5.153511  -0.416568  0.186918  -5.153511  -0.416568  0.186918  -10.391899  10.750819  6.154149  148.698613  31.213385  -156.356271  7.553529  -2.51966  60.055256  66.689106  12.639893  -21.521807  -2.946866  -11.350159  16.008496  85.619512  30.585929  37.241734  2.789865  25.107415  -45.811352  98.660103  -9.243664  -12.398294  -12.555029  -9.799318  -28.556994  -9.880979  -6.784538  -21.578344  
0.0  89.887642  0.0  -1.015509  -6.497638  -90.450553  17.094061  -15.440384  -7.961025  7.849488  0.775013  20.691849  -0.666939  -0.017624  -1.591888  -4.331705  6.712104  -12.911899  -16.143741  11.01489  24.066918  2.121499  3.050527  0.219657  -1.602357  -0.096631  0.090834  -4.38026  -0.257981  0.25456  -4.38026  -0.257981  0.25456  -10.457998  10.280271  6.093318  148.73193  31.37803  -156.430854  7.062743  -1.954772  60.495123  67.15719  13.028747  -22.706281  -1.864152  -12.026667  15.958201  86.603432  31.459564  37.017458  3.022627  26.104769  -46.096605  98.64565  -9.315506  -11.919603  -12.26345  -10.609584  -28.70623  -9.700299  -7.405081  -21.692288  
0.0  89.887642  0.0  -1.661752  -9.643048  -90.050498  19.940171  -16.187944  -8.861422  7.937734  0.83367  21.88849  -0.849166  -0.126626  -1.701867  -2.931472  5.782118  -14.821942  -14.520409  10.847885  25.722655  2.584423  3.207472  0.40584  -1.269886  -0.053472  0.111263  -3.47135  -0.140272  0.306838  -3.471349  -0.140272  0.306838  -10.561029  9.904269  6.205454  148.914715  31.494301  -156.488677  5.995484  -1.079482  61.028609  67.625151  13.278055  -24.333584  -0.368883  -12.811402  16.064684  87.82374  32.552939  36.88965  3.347709  27.075383  -46.176431  98.586223  -9.123383  -11.591854  -11.793786  -11.412146  -28.79689  -9.385064  -8.029346  -21.757158  
0.0  89.887642  0.0  -2.416817  -13.203581  -89.551349  22.677153  -16.985644  -9.53997  7.807665  0.989838  22.928984  -0.967374  -0.230741  -1.864131  -2.046965  4.743677  -16.745861  -11.951914  10.126698  27.285568  2.871492  3.248589  0.535538  -0.909814  -0.013589  0.107226  -2.486941  -0.033106  0.293556  -2.486941  -0.033106  0.293556  -10.678293  9.580564  6.374114  149.051209  31.503667  -156.683829  4.125176  0.242503  61.634023  68.006826  13.156908  -26.331612  1.043499  -13.56601  16.299214  89.782747  33.717501  36.83818  3.689776  28.042235  -46.042233  98.493393  -8.634728  -11.447644  -11.180703  -12.189375  -28.818451  -8.960231  -8.64252  -21.765144  
0.0  89.887642  0.0  -3.21128  -17.009805  -88.874024  24.983583  -17.909668  -10.065773  7.825763  1.256907  23.926162  -1.194876  -0.357631  -2.101313  -1.500584  3.666028  -18.598748  -9.198175  9.104278  28.621755  3.213022  3.237762  0.611547  -0.509868  0.051129  0.074122  -1.393517  0.14131  0.201518  -1.393517  0.14131  0.201518  -11.097761  9.099458  6.61611  149.193436  31.362017  -156.862619  1.388187  2.143964  62.231306  68.278362  12.402948  -28.763918  4.723767  -14.525248  17.492847  89.58354  36.578512  36.113699  4.050874  28.92973  -45.680014  98.423728  -7.880798  -11.472395  -10.568647  -12.993934  -28.786328  -8.536558  -9.277045  -21.730938  
0.0  89.887642  0.0  -4.042826  -21.193232  -88.202444  26.799548  -18.981856  -10.248181  8.032491  1.614713  24.90964  -1.287898  -0.439947  -2.291104  -0.733595  2.650874  -20.143102  -6.61563  7.878345  29.629743  3.557711  3.131011  0.717561  -0.031518  0.141146  0.050359  -0.085858  0.385874  0.137468  -0.085858  0.385874  0.137468  -11.948086  8.482423  6.846904  149.322055  31.081018  -156.956662  -2.334351  4.770203  62.681268  68.334466  10.642564  -31.567511  5.684257  -15.92782  17.374954  92.886378  37.839261  36.846401  4.400701  29.541687  -45.142473  98.424553  -6.957648  -11.702217  -10.050097  -13.842487  -28.754189  -8.18516  -9.94021  -21.696784  
0.0  89.887642  0.0  -4.8532  -25.723781  -87.725729  27.828821  -20.222865  -9.810169  8.649421  2.129109  25.925304  -1.290566  -0.566922  -2.491942  0.350095  1.816206  -21.356697  -4.325076  6.543894  30.494501  4.191338  2.994755  0.801781  0.513922  0.262041  0.062393  1.40548  0.714898  0.176112  1.40548  0.714898  0.176112  -13.1402  7.769314  6.893713  147.166242  31.212592  -156.846726  -9.218222  7.873286  61.537279  68.464697  7.777142  -34.536762  6.171868  -17.537587  16.939236  97.111953  38.82132  37.993234  4.592751  29.767371  -44.435206  98.585194  -5.864348  -12.340558  -9.578246  -14.710632  -28.713281  -7.869685  -10.615965  -21.655091  
0.0  89.887642  0.0  -5.667835  -30.519393  -87.396919  28.000226  -21.626732  -8.863474  9.867199  2.788981  27.105294  -1.127585  -0.661458  -2.763947  1.694251  1.142103  -22.414083  -2.484342  5.032847  31.409569  5.10065  2.966365  0.791775  1.061059  0.40845  0.140333  2.902908  1.110048  0.401455  2.902908  1.110048  0.401455  -14.235997  6.767646  6.543999  146.874525  30.534856  -157.021111  -15.237664  11.985914  61.323436  68.454777  3.451561  -37.398279  6.617507  -19.10231  16.416767  102.044635  39.923799  39.298649  4.575502  29.567636  -43.575088  99.066275  -4.699969  -13.458555  -8.959453  -15.669354  -28.803275  -7.452459  -11.364878  -21.704621  
0.0  89.887642  0.0  -6.402189  -35.503049  -87.047192  27.483553  -22.861686  -7.651113  11.682103  3.568048  28.429098  -0.464452  -0.73222  -3.005997  3.324569  0.651308  -23.496762  -0.939501  3.336535  32.293001  5.958389  2.971636  0.891127  1.557697  0.586571  0.221662  4.263902  1.588277  0.643491  4.263903  1.588277  0.643491  -15.04923  5.510902  6.040524  146.544741  29.628067  -157.018019  -22.402786  16.770281  60.276289  68.626089  -1.881622  -39.665656  7.515107  -20.861212  15.548356  107.182284  40.839468  40.829364  4.554104  28.909438  -42.627048  99.849643  -3.571761  -14.9239  -7.824256  -16.627547  -28.865079  -6.649943  -12.13781  -21.715093  
0.0  89.887642  0.0  -6.946741  -40.351982  -86.874351  26.277863  -23.874197  -6.176891  14.288637  4.35492  29.994605  0.515381  -0.885371  -3.038922  4.973235  0.311109  -24.292077  0.278133  1.92109  32.947883  6.45569  2.867996  1.000791  1.943432  0.790058  0.283706  5.323072  2.13511  0.838651  5.323072  2.13511  0.838651  -15.376104  4.280827  5.530979  146.079064  28.623899  -156.990178  -31.109143  21.907296  58.139918  68.978066  -8.271529  -40.624163  9.063225  -23.053493  14.499208  112.101176  41.468629  42.599426  4.620372  27.861352  -41.64816  100.975349  -2.478529  -16.703459  -6.59028  -17.633021  -28.883668  -5.776381  -12.9514  -21.685255  
0.0  89.887642  0.0  -7.204159  -45.824192  -87.45842  25.301169  -24.868892  -4.170026  17.87512  4.776323  32.067483  0.846549  -1.136987  -2.955775  7.330649  0.192498  -24.31111  0.792097  0.988595  33.592669  7.056582  2.745434  0.96726  2.379482  0.948451  0.346133  6.520505  2.555498  1.038837  6.520505  2.555498  1.038837  -15.681675  3.627424  5.410055  145.858711  27.81503  -156.731665  -40.951342  27.050389  54.431346  69.143161  -15.457532  -39.955095  10.575946  -25.346325  13.687725  116.627406  41.568186  44.26517  4.979189  26.620681  -40.633991  102.223884  -1.470988  -18.559231  -4.905189  -18.333723  -28.533698  -4.542153  -13.558733  -21.36545  
0.0  89.887642  0.0  -7.402821  -49.964194  -88.011676  23.282112  -25.541456  -2.540895  21.415473  4.663058  34.522366  0.865083  -1.342109  -2.880277  8.303979  0.019891  -24.328108  0.818517  0.493816  34.27836  7.772313  2.627784  0.862525  2.56792  1.029625  0.355675  7.037943  2.772897  1.08082  7.037942  2.772897  1.08082  -15.663093  3.551351  5.718636  145.70805  27.439875  -156.122511  -50.481577  31.48571  49.679672  68.434679  -22.472857  -38.168679  11.90989  -27.185225  13.503896  120.529353  41.848707  45.271797  5.764013  25.409553  -39.510329  103.17174  -0.387073  -20.064666  -3.375273  -18.843459  -28.113518  -3.413093  -14.013651  -20.997455  
